<?xml version="1.0" encoding="UTF-8"?>
<!DOCTYPE svg PUBLIC "-//W3C//DTD SVG 1.1//EN" "http://www.w3.org/Graphics/SVG/1.1/DTD/svg11.dtd">
<svg xmlns="http://www.w3.org/2000/svg" version="1.1" width="1081px" height="1081px" style="shape-rendering:geometricPrecision; text-rendering:geometricPrecision; image-rendering:optimizeQuality; fill-rule:evenodd; clip-rule:evenodd" xmlns:xlink="http://www.w3.org/1999/xlink">
<g><path style="opacity:1" fill="#fefefe" d="M -0.5,-0.5 C 359.833,-0.5 720.167,-0.5 1080.5,-0.5C 1080.5,359.833 1080.5,720.167 1080.5,1080.5C 720.167,1080.5 359.833,1080.5 -0.5,1080.5C -0.5,720.167 -0.5,359.833 -0.5,-0.5 Z"/></g>
<g><path style="opacity:1" fill="#fecb26" d="M 624.5,354.5 C 604.649,374.169 583.982,394.335 562.5,415C 560.975,416.009 559.308,416.509 557.5,416.5C 547.499,407.539 542.499,396.206 542.5,382.5C 543.754,362.159 553.754,347.992 572.5,340C 593.047,333.966 610.38,338.799 624.5,354.5 Z"/></g>
<g><path style="opacity:1" fill="#fec424" d="M 624.5,354.5 C 627.167,356.5 629.5,358.833 631.5,361.5C 623.564,368.616 615.397,376.949 607,386.5C 606.667,386.167 606.333,385.833 606,385.5C 593.416,397.749 581.249,410.249 569.5,423C 568.255,423.791 566.922,424.291 565.5,424.5C 562.5,422.167 559.833,419.5 557.5,416.5C 559.308,416.509 560.975,416.009 562.5,415C 583.982,394.335 604.649,374.169 624.5,354.5 Z"/></g>
<g><path style="opacity:1" fill="#febe23" d="M 631.5,361.5 C 634.167,363.5 636.5,365.833 638.5,368.5C 637.559,371.125 636.393,371.125 635,368.5C 629.858,376.308 623.358,382.808 615.5,388C 603.169,401.331 590.502,414.331 577.5,427C 574.691,427.312 573.024,428.812 572.5,431.5C 569.833,429.5 567.5,427.167 565.5,424.5C 566.922,424.291 568.255,423.791 569.5,423C 581.249,410.249 593.416,397.749 606,385.5C 606.333,385.833 606.667,386.167 607,386.5C 615.397,376.949 623.564,368.616 631.5,361.5 Z"/></g>
<g><path style="opacity:1" fill="#fdb823" d="M 638.5,368.5 C 640.833,370.167 642.833,372.167 644.5,374.5C 622.988,394.337 601.655,415.337 580.5,437.5C 579.571,436.45 578.905,436.45 578.5,437.5C 576.167,435.833 574.167,433.833 572.5,431.5C 573.024,428.812 574.691,427.312 577.5,427C 590.502,414.331 603.169,401.331 615.5,388C 623.358,382.808 629.858,376.308 635,368.5C 636.393,371.125 637.559,371.125 638.5,368.5 Z"/></g>
<g><path style="opacity:1" fill="#feb222" d="M 644.5,374.5 C 647.833,377.167 650.833,380.167 653.5,383.5C 652.603,384.598 651.77,384.598 651,383.5C 649.899,385.394 648.566,386.061 647,385.5C 628.878,403.622 610.045,422.455 590.5,442C 589.5,442.333 588.5,442.667 587.5,443C 587.833,443.333 588.167,443.667 588.5,444C 587.552,444.483 586.552,444.649 585.5,444.5C 582.833,442.5 580.5,440.167 578.5,437.5C 578.905,436.45 579.571,436.45 580.5,437.5C 601.655,415.337 622.988,394.337 644.5,374.5 Z"/></g>
<g><path style="opacity:1" fill="#fdab21" d="M 653.5,383.5 C 655.5,384.833 657.167,386.5 658.5,388.5C 656.515,388.859 655.849,389.692 656.5,391C 655.167,391.667 653.833,392.333 652.5,393C 645.782,400.262 638.949,407.429 632,414.5C 631.667,414.167 631.333,413.833 631,413.5C 629.956,414.623 629.29,415.956 629,417.5C 626.86,418.728 625.193,420.395 624,422.5C 623.667,422.167 623.333,421.833 623,421.5C 621.956,422.623 621.29,423.956 621,425.5C 612.466,432.669 604.299,440.169 596.5,448C 597.833,449.84 597.666,450.34 596,449.5C 595.29,450.973 594.124,451.64 592.5,451.5C 589.833,449.5 587.5,447.167 585.5,444.5C 586.552,444.649 587.552,444.483 588.5,444C 588.167,443.667 587.833,443.333 587.5,443C 588.5,442.667 589.5,442.333 590.5,442C 610.045,422.455 628.878,403.622 647,385.5C 648.566,386.061 649.899,385.394 651,383.5C 651.77,384.598 652.603,384.598 653.5,383.5 Z"/></g>
<g><path style="opacity:1" fill="#fca521" d="M 658.5,388.5 C 661.833,391.167 664.833,394.167 667.5,397.5C 665.854,397.542 664.188,397.542 662.5,397.5C 641.852,418.814 621.186,439.481 600.5,459.5C 597.5,457.167 594.833,454.5 592.5,451.5C 594.124,451.64 595.29,450.973 596,449.5C 597.666,450.34 597.833,449.84 596.5,448C 604.299,440.169 612.466,432.669 621,425.5C 621.29,423.956 621.956,422.623 623,421.5C 623.333,421.833 623.667,422.167 624,422.5C 625.193,420.395 626.86,418.728 629,417.5C 629.29,415.956 629.956,414.623 631,413.5C 631.333,413.833 631.667,414.167 632,414.5C 638.949,407.429 645.782,400.262 652.5,393C 653.833,392.333 655.167,391.667 656.5,391C 655.849,389.692 656.515,388.859 658.5,388.5 Z"/></g>
<g><path style="opacity:1" fill="#fc9f20" d="M 667.5,397.5 C 669.167,398.5 670.5,399.833 671.5,401.5C 669.397,402.98 669.397,404.147 671.5,405C 670.354,405.645 669.354,406.478 668.5,407.5C 667.914,407.291 667.414,406.957 667,406.5C 661.464,413.554 654.964,419.221 647.5,423.5C 647.649,424.552 647.483,425.552 647,426.5C 633.357,439.988 619.857,452.988 606.5,465.5C 604.167,463.833 602.167,461.833 600.5,459.5C 621.186,439.481 641.852,418.814 662.5,397.5C 664.188,397.542 665.854,397.542 667.5,397.5 Z"/></g>
<g><path style="opacity:1" fill="#fc9920" d="M 671.5,401.5 C 674.5,403.833 677.167,406.5 679.5,409.5C 678.768,410.808 677.934,412.142 677,413.5C 675.48,411.165 673.98,411.332 672.5,414C 672.957,414.414 673.291,414.914 673.5,415.5C 672.469,416.7 671.635,418.034 671,419.5C 670.667,419.167 670.333,418.833 670,418.5C 668.833,419.667 667.667,420.833 666.5,422C 666.833,422.333 667.167,422.667 667.5,423C 664.834,426.326 661.834,428.659 658.5,430C 658.833,430.333 659.167,430.667 659.5,431C 653.509,434.636 648.175,439.636 643.5,446C 638,448.833 633.833,453 631,458.5C 630.667,458.167 630.333,457.833 630,457.5C 628.5,459 627,460.5 625.5,462C 625.833,462.333 626.167,462.667 626.5,463C 623.281,464.36 620.281,466.693 617.5,470C 617.833,470.333 618.167,470.667 618.5,471C 616.527,471.495 614.527,471.662 612.5,471.5C 610.167,469.833 608.167,467.833 606.5,465.5C 619.857,452.988 633.357,439.988 647,426.5C 647.483,425.552 647.649,424.552 647.5,423.5C 654.964,419.221 661.464,413.554 667,406.5C 667.414,406.957 667.914,407.291 668.5,407.5C 669.354,406.478 670.354,405.645 671.5,405C 669.397,404.147 669.397,402.98 671.5,401.5 Z"/></g>
<g><path style="opacity:1" fill="#231f20" d="M 433.5,410.5 C 486.39,409.57 523.557,433.236 545,481.5C 563.96,533.366 555.626,580.366 520,622.5C 489.95,653.293 454.116,663.126 412.5,652C 396.841,646.016 383.674,636.516 373,623.5C 372.5,665.832 372.333,708.165 372.5,750.5C 350.167,750.5 327.833,750.5 305.5,750.5C 305.5,638.5 305.5,526.5 305.5,414.5C 327.833,414.5 350.167,414.5 372.5,414.5C 372.334,424.839 372.5,435.172 373,445.5C 388.811,426.182 408.977,414.515 433.5,410.5 Z"/></g>
<g><path style="opacity:1" fill="#fc921f" d="M 679.5,409.5 C 682.5,411.833 685.167,414.5 687.5,417.5C 686.293,418.189 684.959,418.355 683.5,418C 684.673,421.11 684.173,421.277 682,418.5C 679.878,419.22 679.378,420.387 680.5,422C 668.503,432.511 656.837,443.345 645.5,454.5C 644.749,455.376 644.249,456.376 644,457.5C 637.285,464.717 630.118,471.384 622.5,477.5C 621.614,478.325 621.281,479.325 621.5,480.5C 618.167,477.833 615.167,474.833 612.5,471.5C 614.527,471.662 616.527,471.495 618.5,471C 618.167,470.667 617.833,470.333 617.5,470C 620.281,466.693 623.281,464.36 626.5,463C 626.167,462.667 625.833,462.333 625.5,462C 627,460.5 628.5,459 630,457.5C 630.333,457.833 630.667,458.167 631,458.5C 633.833,453 638,448.833 643.5,446C 648.175,439.636 653.509,434.636 659.5,431C 659.167,430.667 658.833,430.333 658.5,430C 661.834,428.659 664.834,426.326 667.5,423C 667.167,422.667 666.833,422.333 666.5,422C 667.667,420.833 668.833,419.667 670,418.5C 670.333,418.833 670.667,419.167 671,419.5C 671.635,418.034 672.469,416.7 673.5,415.5C 673.291,414.914 672.957,414.414 672.5,414C 673.98,411.332 675.48,411.165 677,413.5C 677.934,412.142 678.768,410.808 679.5,409.5 Z"/></g>
<g><path style="opacity:1" fill="#f1841e" d="M 697.5,427.5 C 700.167,429.5 702.5,431.833 704.5,434.5C 701.931,435.396 699.931,437.062 698.5,439.5C 697.914,439.291 697.414,438.957 697,438.5C 689.054,447.779 680.388,456.446 671,464.5C 670.167,468 668,470.167 664.5,471C 659.875,476.621 654.542,481.621 648.5,486C 644.45,490.769 641.117,494.602 638.5,497.5C 635.833,495.5 633.5,493.167 631.5,490.5C 632.498,490.656 633.498,490.156 634.5,489C 633.833,488.667 633.167,488.333 632.5,488C 633.931,487.535 635.097,486.701 636,485.5C 636.914,486.654 637.747,486.487 638.5,485C 638.167,484.667 637.833,484.333 637.5,484C 650.804,471.692 663.638,459.192 676,446.5C 681.055,441.568 686.221,436.735 691.5,432C 690.167,431.333 690.167,430.667 691.5,430C 693.397,428.89 695.23,428.724 697,429.5C 697.464,428.906 697.631,428.239 697.5,427.5 Z"/></g>
<g><path style="opacity:1" fill="#f98a1f" d="M 687.5,417.5 C 691.167,420.5 694.5,423.833 697.5,427.5C 697.631,428.239 697.464,428.906 697,429.5C 695.23,428.724 693.397,428.89 691.5,430C 690.167,430.667 690.167,431.333 691.5,432C 686.221,436.735 681.055,441.568 676,446.5C 663.638,459.192 650.804,471.692 637.5,484C 637.833,484.333 638.167,484.667 638.5,485C 637.747,486.487 636.914,486.654 636,485.5C 635.097,486.701 633.931,487.535 632.5,488C 633.167,488.333 633.833,488.667 634.5,489C 633.498,490.156 632.498,490.656 631.5,490.5C 627.833,487.5 624.5,484.167 621.5,480.5C 621.281,479.325 621.614,478.325 622.5,477.5C 630.118,471.384 637.285,464.717 644,457.5C 644.249,456.376 644.749,455.376 645.5,454.5C 656.837,443.345 668.503,432.511 680.5,422C 679.378,420.387 679.878,419.22 682,418.5C 684.173,421.277 684.673,421.11 683.5,418C 684.959,418.355 686.293,418.189 687.5,417.5 Z"/></g>
<g><path style="opacity:1" fill="#eb7f1d" d="M 704.5,434.5 C 706.5,435.833 708.167,437.5 709.5,439.5C 708.115,440.574 706.949,441.907 706,443.5C 704.667,443.5 703.333,443.5 702,443.5C 696.519,449.684 690.686,456.184 684.5,463C 677.316,471.196 669.483,479.363 661,487.5C 660.282,486.549 659.449,486.383 658.5,487C 655.167,490.333 651.833,493.667 648.5,497C 649.5,499.091 648.833,500.757 646.5,502C 646.833,502.333 647.167,502.667 647.5,503C 646.231,502.891 645.231,503.058 644.5,503.5C 642.167,501.833 640.167,499.833 638.5,497.5C 641.117,494.602 644.45,490.769 648.5,486C 654.542,481.621 659.875,476.621 664.5,471C 668,470.167 670.167,468 671,464.5C 680.388,456.446 689.054,447.779 697,438.5C 697.414,438.957 697.914,439.291 698.5,439.5C 699.931,437.062 701.931,435.396 704.5,434.5 Z"/></g>
<g><path style="opacity:1" fill="#e57a1c" d="M 709.5,439.5 C 711.833,441.167 713.833,443.167 715.5,445.5C 715.5,446.167 715.5,446.833 715.5,447.5C 693.807,467.522 672.473,488.522 651.5,510.5C 648.833,508.5 646.5,506.167 644.5,503.5C 645.231,503.058 646.231,502.891 647.5,503C 647.167,502.667 646.833,502.333 646.5,502C 648.833,500.757 649.5,499.091 648.5,497C 651.833,493.667 655.167,490.333 658.5,487C 659.449,486.383 660.282,486.549 661,487.5C 669.483,479.363 677.316,471.196 684.5,463C 690.686,456.184 696.519,449.684 702,443.5C 703.333,443.5 704.667,443.5 706,443.5C 706.949,441.907 708.115,440.574 709.5,439.5 Z"/></g>
<g><path style="opacity:1" fill="#dd741a" d="M 715.5,447.5 C 717.584,450.801 718.918,454.468 719.5,458.5C 718.5,458.5 717.5,458.5 716.5,458.5C 716.5,459.5 716.5,460.5 716.5,461.5C 715.448,461.351 714.448,461.517 713.5,462C 702.497,472.669 691.831,483.669 681.5,495C 673.635,502.368 665.635,509.534 657.5,516.5C 655.167,514.833 653.167,512.833 651.5,510.5C 672.473,488.522 693.807,467.522 715.5,447.5 Z"/></g>
<g><path style="opacity:1" fill="#feca25" d="M 715.5,445.5 C 735.132,464.632 754.632,483.965 774,503.5C 786.667,522.5 786.667,541.5 774,560.5C 759.299,575.369 744.465,590.035 729.5,604.5C 729.047,603.542 728.381,602.708 727.5,602C 727.833,601.667 728.167,601.333 728.5,601C 727.167,601 725.833,601 724.5,601C 724.833,600.667 725.167,600.333 725.5,600C 724.219,597.597 722.386,595.763 720,594.5C 719.517,593.552 719.351,592.552 719.5,591.5C 718.448,591.649 717.448,591.483 716.5,591C 715.667,588.833 714.167,587.333 712,586.5C 711.517,585.552 711.351,584.552 711.5,583.5C 710.448,583.649 709.448,583.483 708.5,583C 707.667,580.833 706.167,579.333 704,578.5C 703.517,577.552 703.351,576.552 703.5,575.5C 702.448,575.649 701.448,575.483 700.5,575C 699.636,573.303 698.303,572.137 696.5,571.5C 695.571,570.311 695.238,568.978 695.5,567.5C 691.206,566.539 688.539,563.872 687.5,559.5C 683.206,558.539 680.539,555.872 679.5,551.5C 675.206,550.539 672.539,547.872 671.5,543.5C 669.799,543.034 668.299,543.034 667,543.5C 666.333,542.833 665.667,542.167 665,541.5C 664.329,542.252 663.496,542.586 662.5,542.5C 665.833,538.833 669.167,535.167 672.5,531.5C 687.898,517.604 702.064,502.604 715,486.5C 717.09,482.401 718.256,478.067 718.5,473.5C 719.487,468.695 719.821,463.695 719.5,458.5C 718.918,454.468 717.584,450.801 715.5,447.5C 715.5,446.833 715.5,446.167 715.5,445.5 Z"/></g>
<g><path style="opacity:1" fill="#d76f1a" d="M 719.5,458.5 C 719.821,463.695 719.487,468.695 718.5,473.5C 717.317,473.844 716.484,473.178 716,471.5C 715.047,473.455 713.713,475.122 712,476.5C 711.517,477.448 711.351,478.448 711.5,479.5C 709.627,480.83 707.46,482.83 705,485.5C 704.667,485.167 704.333,484.833 704,484.5C 703.517,485.448 703.351,486.448 703.5,487.5C 702.448,487.351 701.448,487.517 700.5,488C 699.667,490.167 698.167,491.667 696,492.5C 695.517,493.448 695.351,494.448 695.5,495.5C 690.534,495.991 686.867,498.491 684.5,503C 683.5,503.333 682.5,503.667 681.5,504C 678.141,509.451 674.308,514.951 670,520.5C 668.984,519.366 668.317,519.699 668,521.5C 667.667,521.167 667.333,520.833 667,520.5C 665.917,522.241 664.75,522.907 663.5,522.5C 661.167,520.833 659.167,518.833 657.5,516.5C 665.635,509.534 673.635,502.368 681.5,495C 691.831,483.669 702.497,472.669 713.5,462C 714.448,461.517 715.448,461.351 716.5,461.5C 716.5,460.5 716.5,459.5 716.5,458.5C 717.5,458.5 718.5,458.5 719.5,458.5 Z"/></g>
<g><path style="opacity:1" fill="#fdfdfd" d="M 421.5,472.5 C 455.626,471.799 477.459,487.799 487,520.5C 491.059,547.677 482.226,569.51 460.5,586C 426.941,602.69 399.441,595.857 378,565.5C 362.353,532.728 368.519,504.895 396.5,482C 404.328,477.119 412.661,473.952 421.5,472.5 Z"/></g>
<g><path style="opacity:1" fill="#d06a19" d="M 718.5,473.5 C 718.256,478.067 717.09,482.401 715,486.5C 702.064,502.604 687.898,517.604 672.5,531.5C 669.167,528.833 666.167,525.833 663.5,522.5C 664.75,522.907 665.917,522.241 667,520.5C 667.333,520.833 667.667,521.167 668,521.5C 668.317,519.699 668.984,519.366 670,520.5C 674.308,514.951 678.141,509.451 681.5,504C 682.5,503.667 683.5,503.333 684.5,503C 686.867,498.491 690.534,495.991 695.5,495.5C 695.351,494.448 695.517,493.448 696,492.5C 698.167,491.667 699.667,490.167 700.5,488C 701.448,487.517 702.448,487.351 703.5,487.5C 703.351,486.448 703.517,485.448 704,484.5C 704.333,484.833 704.667,485.167 705,485.5C 707.46,482.83 709.627,480.83 711.5,479.5C 711.351,478.448 711.517,477.448 712,476.5C 713.713,475.122 715.047,473.455 716,471.5C 716.484,473.178 717.317,473.844 718.5,473.5 Z"/></g>
<g><path style="opacity:1" fill="#fec424" d="M 729.5,604.5 C 726.833,607.833 723.833,610.833 720.5,613.5C 718.583,610.174 715.917,606.841 712.5,603.5C 711.571,602.311 711.238,600.978 711.5,599.5C 710.022,599.762 708.689,599.429 707.5,598.5C 706.833,597.167 705.833,596.167 704.5,595.5C 703.571,594.311 703.238,592.978 703.5,591.5C 702.022,591.762 700.689,591.429 699.5,590.5C 685.512,577.345 672.012,563.679 659,549.5C 658.014,550.171 656.847,550.171 655.5,549.5C 657.5,546.833 659.833,544.5 662.5,542.5C 663.496,542.586 664.329,542.252 665,541.5C 665.667,542.167 666.333,542.833 667,543.5C 668.299,543.034 669.799,543.034 671.5,543.5C 672.539,547.872 675.206,550.539 679.5,551.5C 680.539,555.872 683.206,558.539 687.5,559.5C 688.539,563.872 691.206,566.539 695.5,567.5C 695.238,568.978 695.571,570.311 696.5,571.5C 698.303,572.137 699.636,573.303 700.5,575C 701.448,575.483 702.448,575.649 703.5,575.5C 703.351,576.552 703.517,577.552 704,578.5C 706.167,579.333 707.667,580.833 708.5,583C 709.448,583.483 710.448,583.649 711.5,583.5C 711.351,584.552 711.517,585.552 712,586.5C 714.167,587.333 715.667,588.833 716.5,591C 717.448,591.483 718.448,591.649 719.5,591.5C 719.351,592.552 719.517,593.552 720,594.5C 722.386,595.763 724.219,597.597 725.5,600C 725.167,600.333 724.833,600.667 724.5,601C 725.833,601 727.167,601 728.5,601C 728.167,601.333 727.833,601.667 727.5,602C 728.381,602.708 729.047,603.542 729.5,604.5 Z"/></g>
<g><path style="opacity:1" fill="#febe23" d="M 655.5,549.5 C 656.847,550.171 658.014,550.171 659,549.5C 672.012,563.679 685.512,577.345 699.5,590.5C 700.689,591.429 702.022,591.762 703.5,591.5C 703.238,592.978 703.571,594.311 704.5,595.5C 705.833,596.167 706.833,597.167 707.5,598.5C 708.689,599.429 710.022,599.762 711.5,599.5C 711.238,600.978 711.571,602.311 712.5,603.5C 715.917,606.841 718.583,610.174 720.5,613.5C 718.5,616.167 716.167,618.5 713.5,620.5C 713.649,619.448 713.483,618.448 713,617.5C 693.298,598.131 673.964,578.465 655,558.5C 653.192,558.888 651.525,558.888 650,558.5C 649.805,557.181 649.972,555.847 650.5,554.5C 651.833,552.5 653.5,550.833 655.5,549.5 Z"/></g>
<g><path style="opacity:1" fill="#fdb823" d="M 650.5,554.5 C 649.972,555.847 649.805,557.181 650,558.5C 651.525,558.888 653.192,558.888 655,558.5C 673.964,578.465 693.298,598.131 713,617.5C 713.483,618.448 713.649,619.448 713.5,620.5C 711.167,623.5 708.5,626.167 705.5,628.5C 705.384,626.425 704.884,624.425 704,622.5C 702.221,625.276 701.221,624.943 701,621.5C 697.641,618.471 694.308,615.471 691,612.5C 690.517,611.552 690.351,610.552 690.5,609.5C 688.567,609.271 686.9,608.438 685.5,607C 672.932,593.387 659.932,580.221 646.5,567.5C 645.575,566.359 644.741,566.359 644,567.5C 643.751,566.376 643.251,565.376 642.5,564.5C 641.583,565.127 640.583,565.461 639.5,565.5C 642.833,561.5 646.5,557.833 650.5,554.5 Z"/></g>
<g><path style="opacity:1" fill="#feb222" d="M 705.5,628.5 C 703.167,631.5 700.5,634.167 697.5,636.5C 677.108,615.276 656.108,594.442 634.5,574C 633.552,573.517 632.552,573.351 631.5,573.5C 633.833,570.5 636.5,567.833 639.5,565.5C 640.583,565.461 641.583,565.127 642.5,564.5C 643.251,565.376 643.751,566.376 644,567.5C 644.741,566.359 645.575,566.359 646.5,567.5C 659.932,580.221 672.932,593.387 685.5,607C 686.9,608.438 688.567,609.271 690.5,609.5C 690.351,610.552 690.517,611.552 691,612.5C 694.308,615.471 697.641,618.471 701,621.5C 701.221,624.943 702.221,625.276 704,622.5C 704.884,624.425 705.384,626.425 705.5,628.5 Z"/></g>
<g><path style="opacity:1" fill="#fdab21" d="M 631.5,573.5 C 632.552,573.351 633.552,573.517 634.5,574C 656.108,594.442 677.108,615.276 697.5,636.5C 695.5,639.167 693.167,641.5 690.5,643.5C 688.981,642.59 687.315,641.757 685.5,641C 685.833,640.667 686.167,640.333 686.5,640C 667.25,620.478 648.083,601.645 629,583.5C 627.416,582.139 625.582,581.472 623.5,581.5C 625.833,578.5 628.5,575.833 631.5,573.5 Z"/></g>
<g><path style="opacity:1" fill="#fda520" d="M 623.5,581.5 C 625.582,581.472 627.416,582.139 629,583.5C 648.083,601.645 667.25,620.478 686.5,640C 686.167,640.333 685.833,640.667 685.5,641C 687.315,641.757 688.981,642.59 690.5,643.5C 688.167,646.5 685.5,649.167 682.5,651.5C 678.918,649.693 675.584,647.36 672.5,644.5C 655.63,626.194 637.963,608.694 619.5,592C 619.833,591.667 620.167,591.333 620.5,591C 619.016,590.338 617.683,589.504 616.5,588.5C 618.5,585.833 620.833,583.5 623.5,581.5 Z"/></g>
<g><path style="opacity:1" fill="#fc9f20" d="M 616.5,588.5 C 617.683,589.504 619.016,590.338 620.5,591C 620.167,591.333 619.833,591.667 619.5,592C 637.963,608.694 655.63,626.194 672.5,644.5C 675.584,647.36 678.918,649.693 682.5,651.5C 679.833,654.833 676.833,657.833 673.5,660.5C 673.294,658.451 672.461,658.117 671,659.5C 670.508,658.451 670.674,657.451 671.5,656.5C 668.805,653.991 665.805,651.824 662.5,650C 660.938,646.193 658.271,643.526 654.5,642C 652.959,640.421 651.792,638.587 651,636.5C 647,635.167 644.333,632.5 643,628.5C 640.444,627.781 639.277,626.114 639.5,623.5C 638.448,623.649 637.448,623.483 636.5,623C 635.667,620.833 634.167,619.333 632,618.5C 631.517,617.552 631.351,616.552 631.5,615.5C 630.448,615.649 629.448,615.483 628.5,615C 627.667,612.833 626.167,611.333 624,610.5C 623.517,609.552 623.351,608.552 623.5,607.5C 622.448,607.649 621.448,607.483 620.5,607C 617.687,604.672 615.521,601.839 614,598.5C 613.667,598.833 613.333,599.167 613,599.5C 611.275,598.536 609.441,597.869 607.5,597.5C 610.167,594.167 613.167,591.167 616.5,588.5 Z"/></g>
<g><path style="opacity:1" fill="#fc9920" d="M 607.5,597.5 C 609.441,597.869 611.275,598.536 613,599.5C 613.333,599.167 613.667,598.833 614,598.5C 615.521,601.839 617.687,604.672 620.5,607C 621.448,607.483 622.448,607.649 623.5,607.5C 623.351,608.552 623.517,609.552 624,610.5C 626.167,611.333 627.667,612.833 628.5,615C 629.448,615.483 630.448,615.649 631.5,615.5C 631.351,616.552 631.517,617.552 632,618.5C 634.167,619.333 635.667,620.833 636.5,623C 637.448,623.483 638.448,623.649 639.5,623.5C 639.277,626.114 640.444,627.781 643,628.5C 644.333,632.5 647,635.167 651,636.5C 651.792,638.587 652.959,640.421 654.5,642C 658.271,643.526 660.938,646.193 662.5,650C 665.805,651.824 668.805,653.991 671.5,656.5C 670.674,657.451 670.508,658.451 671,659.5C 672.461,658.117 673.294,658.451 673.5,660.5C 671.5,663.167 669.167,665.5 666.5,667.5C 665.828,666.733 664.995,666.066 664,665.5C 663.751,666.624 663.251,667.624 662.5,668.5C 662.089,667.738 661.923,666.738 662,665.5C 660.989,664.663 659.822,664.33 658.5,664.5C 658.649,663.448 658.483,662.448 658,661.5C 640.263,644.052 622.43,626.719 604.5,609.5C 603.359,608.575 603.359,607.741 604.5,607C 603.837,605.482 602.837,604.315 601.5,603.5C 603.167,601.167 605.167,599.167 607.5,597.5 Z"/></g>
<g><path style="opacity:1" fill="#fb921e" d="M 601.5,603.5 C 602.837,604.315 603.837,605.482 604.5,607C 603.359,607.741 603.359,608.575 604.5,609.5C 622.43,626.719 640.263,644.052 658,661.5C 658.483,662.448 658.649,663.448 658.5,664.5C 659.822,664.33 660.989,664.663 662,665.5C 661.923,666.738 662.089,667.738 662.5,668.5C 663.251,667.624 663.751,666.624 664,665.5C 664.995,666.066 665.828,666.733 666.5,667.5C 663.833,670.833 660.833,673.833 657.5,676.5C 656.36,675.199 655.027,674.032 653.5,673C 654.167,672.667 654.833,672.333 655.5,672C 651.69,670.87 648.357,668.87 645.5,666C 629.333,649.833 613.167,633.667 597,617.5C 596.405,616.101 596.572,614.768 597.5,613.5C 595.54,612.481 593.54,612.481 591.5,613.5C 594.5,609.833 597.833,606.5 601.5,603.5 Z"/></g>
<g><path style="opacity:1" fill="#f88a1e" d="M 657.5,676.5 C 653.833,680.833 649.833,684.833 645.5,688.5C 641.921,688.089 639.754,686.089 639,682.5C 621.304,666.149 603.637,649.149 586,631.5C 584.025,629.047 582.525,626.381 581.5,623.5C 584.5,619.833 587.833,616.5 591.5,613.5C 593.54,612.481 595.54,612.481 597.5,613.5C 596.572,614.768 596.405,616.101 597,617.5C 613.167,633.667 629.333,649.833 645.5,666C 648.357,668.87 651.69,670.87 655.5,672C 654.833,672.333 654.167,672.667 653.5,673C 655.027,674.032 656.36,675.199 657.5,676.5 Z"/></g>
<g><path style="opacity:1" fill="#ec801d" d="M 581.5,623.5 C 582.525,626.381 584.025,629.047 586,631.5C 603.637,649.149 621.304,666.149 639,682.5C 639.754,686.089 641.921,688.089 645.5,688.5C 640.5,694.167 635.167,699.5 629.5,704.5C 629.047,703.542 628.381,702.708 627.5,702C 628.308,701.692 628.975,701.192 629.5,700.5C 628.066,699.77 626.9,698.77 626,697.5C 624.129,698.668 622.629,698.168 621.5,696C 622.167,695.667 622.833,695.333 623.5,695C 620.833,693.667 618.833,691.667 617.5,689C 615.905,689.617 614.572,689.284 613.5,688C 614.167,687.667 614.833,687.333 615.5,687C 612.833,685.667 610.833,683.667 609.5,681C 607.905,681.617 606.572,681.284 605.5,680C 606.167,679.667 606.833,679.333 607.5,679C 604.833,677.667 602.833,675.667 601.5,673C 600.451,672.508 599.451,672.674 598.5,673.5C 597.396,672.369 597.729,671.535 599.5,671C 596.833,669.667 594.833,667.667 593.5,665C 592.451,664.508 591.451,664.674 590.5,665.5C 589.396,664.369 589.729,663.535 591.5,663C 588.833,661.667 586.833,659.667 585.5,657C 584.451,656.508 583.451,656.674 582.5,657.5C 581.396,656.369 581.729,655.535 583.5,655C 580.833,653.667 578.833,651.667 577.5,649C 576.451,648.508 575.451,648.674 574.5,649.5C 573.396,648.369 573.729,647.535 575.5,647C 572.833,645.667 570.833,643.667 569.5,641C 568.451,640.508 567.451,640.674 566.5,641.5C 565.702,641.043 565.369,640.376 565.5,639.5C 570.5,633.833 575.833,628.5 581.5,623.5 Z"/></g>
<g><path style="opacity:1" fill="#e57a1c" d="M 565.5,639.5 C 565.369,640.376 565.702,641.043 566.5,641.5C 567.451,640.674 568.451,640.508 569.5,641C 570.833,643.667 572.833,645.667 575.5,647C 573.729,647.535 573.396,648.369 574.5,649.5C 575.451,648.674 576.451,648.508 577.5,649C 578.833,651.667 580.833,653.667 583.5,655C 581.729,655.535 581.396,656.369 582.5,657.5C 583.451,656.674 584.451,656.508 585.5,657C 586.833,659.667 588.833,661.667 591.5,663C 589.729,663.535 589.396,664.369 590.5,665.5C 591.451,664.674 592.451,664.508 593.5,665C 594.833,667.667 596.833,669.667 599.5,671C 597.729,671.535 597.396,672.369 598.5,673.5C 599.451,672.674 600.451,672.508 601.5,673C 602.833,675.667 604.833,677.667 607.5,679C 606.833,679.333 606.167,679.667 605.5,680C 606.572,681.284 607.905,681.617 609.5,681C 610.833,683.667 612.833,685.667 615.5,687C 614.833,687.333 614.167,687.667 613.5,688C 614.572,689.284 615.905,689.617 617.5,689C 618.833,691.667 620.833,693.667 623.5,695C 622.833,695.333 622.167,695.667 621.5,696C 622.629,698.168 624.129,698.668 626,697.5C 626.9,698.77 628.066,699.77 629.5,700.5C 628.975,701.192 628.308,701.692 627.5,702C 628.381,702.708 629.047,703.542 629.5,704.5C 627.5,707.167 625.167,709.5 622.5,711.5C 621.603,710.402 620.77,710.402 620,711.5C 616.391,707.176 612.724,702.843 609,698.5C 592.833,682.333 576.667,666.167 560.5,650C 558.866,649.506 557.199,649.34 555.5,649.5C 558.5,645.833 561.833,642.5 565.5,639.5 Z"/></g>
<g><path style="opacity:1" fill="#dd741b" d="M 555.5,649.5 C 557.199,649.34 558.866,649.506 560.5,650C 576.667,666.167 592.833,682.333 609,698.5C 612.724,702.843 616.391,707.176 620,711.5C 620.77,710.402 621.603,710.402 622.5,711.5C 620.037,715.3 616.704,717.967 612.5,719.5C 593.006,699.501 572.839,679.168 552,658.5C 550.989,659.337 549.822,659.67 548.5,659.5C 549.851,655.458 552.185,652.125 555.5,649.5 Z"/></g>
<g><path style="opacity:1" fill="#d76f1a" d="M 612.5,719.5 C 610.102,721.974 607.102,723.308 603.5,723.5C 601.675,721.34 599.341,719.84 596.5,719C 595.667,716.833 594.167,715.333 592,714.5C 591.517,713.552 591.351,712.552 591.5,711.5C 590.448,711.649 589.448,711.483 588.5,711C 587.667,708.833 586.167,707.333 584,706.5C 583.517,705.552 583.351,704.552 583.5,703.5C 582.448,703.649 581.448,703.483 580.5,703C 579.667,700.833 578.167,699.333 576,698.5C 575.517,697.552 575.351,696.552 575.5,695.5C 574.448,695.649 573.448,695.483 572.5,695C 571.667,692.833 570.167,691.333 568,690.5C 567.517,689.552 567.351,688.552 567.5,687.5C 566.448,687.649 565.448,687.483 564.5,687C 563.667,684.833 562.167,683.333 560,682.5C 559.517,681.552 559.351,680.552 559.5,679.5C 558.448,679.649 557.448,679.483 556.5,679C 552.623,675.098 549.79,670.931 548,666.5C 547.667,667.833 547.333,669.167 547,670.5C 546.5,670 546,669.5 545.5,669C 546.406,667.301 546.739,665.467 546.5,663.5C 546.66,661.847 547.326,660.514 548.5,659.5C 549.822,659.67 550.989,659.337 552,658.5C 572.839,679.168 593.006,699.501 612.5,719.5 Z"/></g>
<g><path style="opacity:1" fill="#ce691a" d="M 546.5,663.5 C 546.739,665.467 546.406,667.301 545.5,669C 546,669.5 546.5,670 547,670.5C 547.333,669.167 547.667,667.833 548,666.5C 549.79,670.931 552.623,675.098 556.5,679C 557.448,679.483 558.448,679.649 559.5,679.5C 559.351,680.552 559.517,681.552 560,682.5C 562.167,683.333 563.667,684.833 564.5,687C 565.448,687.483 566.448,687.649 567.5,687.5C 567.351,688.552 567.517,689.552 568,690.5C 570.167,691.333 571.667,692.833 572.5,695C 573.448,695.483 574.448,695.649 575.5,695.5C 575.351,696.552 575.517,697.552 576,698.5C 578.167,699.333 579.667,700.833 580.5,703C 581.448,703.483 582.448,703.649 583.5,703.5C 583.351,704.552 583.517,705.552 584,706.5C 586.167,707.333 587.667,708.833 588.5,711C 589.448,711.483 590.448,711.649 591.5,711.5C 591.351,712.552 591.517,713.552 592,714.5C 594.167,715.333 595.667,716.833 596.5,719C 599.341,719.84 601.675,721.34 603.5,723.5C 579.832,730.441 561.332,723.441 548,702.5C 541.643,689.515 541.143,676.515 546.5,663.5 Z"/></g>
</svg>
